<svg width="274" height="257" viewBox="0 0 274 257" fill="none" xmlns="http://www.w3.org/2000/svg">
<g clip-path="url(#clip0_9_681)">
<mask id="mask0_9_681" style="mask-type:luminance" maskUnits="userSpaceOnUse" x="100" y="90" width="16" height="18">
<path d="M100.126 90.4463H115.056V107.565H100.126V90.4463Z" fill="white"/>
</mask>
<g mask="url(#mask0_9_681)">
<mask id="mask1_9_681" style="mask-type:luminance" maskUnits="userSpaceOnUse" x="99" y="90" width="17" height="18">
<path d="M115.349 90.3899H99.7712V107.801H115.349V90.3899Z" fill="white"/>
</mask>
<g mask="url(#mask1_9_681)">
<mask id="mask2_9_681" style="mask-type:luminance" maskUnits="userSpaceOnUse" x="100" y="90" width="16" height="18">
<path d="M100.126 90.4463H115.056V107.565H100.126V90.4463Z" fill="white"/>
</mask>
<g mask="url(#mask2_9_681)">
<path d="M100.126 90.4463H115.056V107.571H100.126V90.4463Z" fill="#F9543F"/>
</g>
</g>
</g>
<path d="M234.888 53.8557C223.714 53.4462 210.22 61.735 204.747 72.371C199.274 83.0027 203.893 91.9557 215.072 92.3667C226.246 92.7776 239.744 84.4888 245.218 73.8572C250.69 63.2212 246.065 54.2667 234.888 53.8557ZM240.673 73.2349C236.434 81.4688 225.978 87.8865 217.321 87.5696C208.666 87.2513 205.086 80.3169 209.325 72.083C213.564 63.8405 224.016 57.4213 232.673 57.7397C241.328 58.0566 244.912 64.9909 240.673 73.2349Z" fill="#2F2F3F"/>
<path d="M198.715 223.678C202.239 223.363 206.152 223.646 208.721 226.078C208.979 226.322 209.212 226.585 209.431 226.858L214.045 226.036L127.68 190.846L99.8611 195.743L182.251 228.843C187.29 225.982 192.942 224.196 198.715 223.678Z" fill="#FEFEFE"/>
<path d="M125.094 235.85C126.784 234.986 128.607 234.481 130.483 234.24L87.6925 217.404L59.6811 222.231L118.304 245.464C118.316 245.432 118.331 245.402 118.342 245.368C119.679 241.309 121.012 237.935 125.094 235.85Z" fill="#FEFEFE"/>
<path d="M139.262 234.747C143.988 235.747 148.496 237.586 153.183 238.761C157.869 239.935 162.932 240.412 167.451 238.703C171.634 237.12 174.907 233.853 178.527 231.231C179.723 230.365 180.967 229.571 182.251 228.843L99.8611 195.743L87.6983 217.404H87.6925L130.483 234.24C133.375 233.87 136.394 234.139 139.262 234.747Z" fill="#517BD1"/>
<path d="M198.715 223.678C192.942 224.196 187.29 225.982 182.251 228.843L187.175 230.821L209.431 226.857C209.212 226.585 208.979 226.322 208.721 226.078C206.152 223.646 202.239 223.363 198.715 223.678Z" fill="#0056B3"/>
<mask id="mask3_9_681" style="mask-type:luminance" maskUnits="userSpaceOnUse" x="117" y="234" width="58" height="23">
<path d="M117.945 234.125H174.692V256.907H117.945V234.125Z" fill="white"/>
</mask>
<g mask="url(#mask3_9_681)">
<path d="M174.582 251.591L130.483 234.24C128.607 234.481 126.784 234.986 125.094 235.85C121.012 237.935 119.679 241.309 118.342 245.368C118.331 245.402 118.316 245.432 118.304 245.464L146.826 256.768L174.582 251.591Z" fill="#FFC107"/>
</g>
<path d="M118.362 245.303C118.223 245.257 118.148 245.107 118.194 244.968C119.487 241.084 120.889 237.699 124.972 235.612L125.13 235.534C125.26 235.468 125.421 235.523 125.486 235.654C125.551 235.786 125.498 235.945 125.366 236.01L125.214 236.087C121.305 238.084 120 241.23 118.7 245.136C118.654 245.273 118.504 245.35 118.362 245.303Z" fill="#0A0A19"/>
<path d="M128.632 234.298C129.094 234.191 129.575 234.102 130.06 234.029C130.208 234.01 130.341 234.109 130.363 234.253C130.385 234.4 130.285 234.534 130.138 234.556C129.666 234.627 129.2 234.714 128.752 234.816C128.406 234.897 128.291 234.376 128.632 234.298Z" fill="#0A0A19"/>
<path d="M178.527 231.231C174.907 233.853 171.634 237.12 167.451 238.703C162.932 240.412 157.869 239.935 153.183 238.761C148.496 237.586 143.988 235.747 139.262 234.747C136.394 234.139 133.375 233.87 130.483 234.24L174.582 251.591L187.175 230.821L182.251 228.843C180.967 229.571 179.723 230.365 178.527 231.231Z" fill="#FEFEFE"/>
<path d="M209.06 155.563C209.01 159.734 209.984 163.677 208.13 167.717C206.226 171.864 202.359 175.097 197.904 176.151C197.11 176.337 196.309 176.454 195.505 176.525L253.464 199.566L253.74 199.515L265.918 178.36L209.06 155.563Z" fill="#FFC107"/>
<path d="M177.252 175.772C173.209 176.472 169.675 178.608 166.117 180.734L226.293 204.604L253.464 199.566L195.505 176.525C189.498 177.054 183.265 174.731 177.252 175.772Z" fill="#FEFEFE"/>
<path d="M157.889 184.871C149.915 187.538 140.561 185.389 134.588 178.214L127.68 190.846L214.045 226.035L226.293 204.604L166.117 180.733C163.461 182.319 160.794 183.9 157.889 184.871Z" fill="#FFC107"/>
<path d="M166.508 165L195.505 176.525C196.309 176.455 197.11 176.337 197.904 176.151C202.359 175.097 206.226 171.864 208.13 167.717C209.984 163.677 209.01 159.734 209.06 155.563L178.907 143.473L166.508 165Z" fill="#FEFEFE"/>
<path d="M166.498 165.017L139.078 170.008L166.117 180.734C169.675 178.608 173.209 176.472 177.252 175.772C183.265 174.731 189.498 177.054 195.505 176.525L166.508 165L166.498 165.017Z" fill="#517BD1"/>
<path d="M157.889 184.871C160.794 183.9 163.461 182.32 166.117 180.734L139.078 170.008L134.588 178.214C140.526 185.345 149.88 187.549 157.889 184.871Z" fill="#517BD1"/>
<path d="M245.095 170.41C244.972 170.329 244.938 170.164 245.019 170.041C245.61 169.158 245.949 168.198 246.029 167.187C246.041 167.04 246.17 166.93 246.316 166.943C246.462 166.955 246.572 167.082 246.561 167.228C246.474 168.331 246.104 169.377 245.464 170.336C245.382 170.459 245.215 170.491 245.095 170.41Z" fill="black"/>
<path d="M156.114 235.282C156.104 235.136 156.214 235.009 156.361 234.999C158.418 234.85 160.51 234.563 162.58 234.146C162.725 234.117 162.864 234.21 162.893 234.353C162.924 234.498 162.829 234.638 162.686 234.667C160.594 235.09 158.479 235.379 156.4 235.53C156.258 235.54 156.124 235.433 156.114 235.282ZM168.48 232.873C168.434 232.733 168.51 232.582 168.649 232.537C170.624 231.886 172.589 231.11 174.491 230.231C174.626 230.168 174.784 230.226 174.845 230.359C174.907 230.493 174.849 230.652 174.714 230.712C172.794 231.601 170.81 232.385 168.817 233.042C168.68 233.089 168.526 233.015 168.48 232.873ZM179.941 227.639C179.865 227.513 179.905 227.349 180.031 227.273C181.65 226.286 183.679 224.924 185.166 223.68C185.28 223.586 185.447 223.6 185.543 223.713C185.637 223.826 185.622 223.994 185.509 224.088C184 225.35 181.954 226.723 180.308 227.727C180.183 227.804 180.02 227.765 179.941 227.639ZM189.528 219.54C189.411 219.451 189.388 219.283 189.476 219.166C190.776 217.454 191.828 215.643 192.603 213.783C192.659 213.647 192.817 213.585 192.95 213.64C193.087 213.696 193.15 213.853 193.094 213.987C192.303 215.89 191.228 217.739 189.901 219.489C189.812 219.605 189.646 219.628 189.528 219.54ZM194.333 208.053C194.185 208.043 194.076 207.914 194.086 207.768C194.251 205.626 194.018 203.62 193.427 201.628C193.385 201.487 193.466 201.34 193.607 201.298C193.749 201.254 193.896 201.337 193.938 201.477C194.548 203.532 194.787 205.61 194.618 207.808C194.608 207.953 194.482 208.064 194.333 208.053ZM190.841 195.967C189.786 194.204 188.572 192.5 187.316 190.763C187.229 190.643 187.257 190.477 187.375 190.391C187.494 190.304 187.661 190.332 187.748 190.451C189.011 192.197 190.232 193.912 191.299 195.693C191.374 195.819 191.333 195.983 191.207 196.058C191.08 196.135 190.916 196.093 190.841 195.967ZM183.714 185.558C182.502 183.586 181.563 181.665 180.924 179.848C180.874 179.709 180.948 179.557 181.087 179.508C181.225 179.459 181.379 179.532 181.426 179.671C182.054 181.453 182.977 183.34 184.169 185.279C184.246 185.405 184.207 185.568 184.081 185.645C183.956 185.722 183.791 185.684 183.714 185.558ZM233.985 174.934C233.837 174.928 233.723 174.805 233.73 174.657C233.736 174.51 233.872 174.398 234.007 174.403C236.655 174.511 238.591 174.148 240.125 173.592C240.263 173.543 240.416 173.614 240.467 173.753C240.516 173.89 240.445 174.044 240.306 174.093C238.662 174.688 236.641 175.045 233.985 174.934ZM227.715 173.856C225.857 173.314 223.916 172.576 221.78 171.6C221.647 171.537 221.588 171.38 221.65 171.246C221.711 171.113 221.869 171.054 222.003 171.115C224.114 172.081 226.031 172.811 227.864 173.343C228.004 173.385 228.086 173.533 228.045 173.673C228.003 173.816 227.854 173.896 227.715 173.856ZM180.137 173.843C180.133 173.843 180.128 173.843 180.125 173.843C179.978 173.837 179.863 173.714 179.87 173.566C179.954 171.419 180.564 169.331 181.77 167.484C181.851 167.361 182.015 167.326 182.138 167.406C182.262 167.487 182.297 167.652 182.216 167.775C181.053 169.558 180.483 171.556 180.402 173.588C180.396 173.731 180.279 173.843 180.137 173.843ZM216.134 168.734C214.213 167.692 212.309 166.653 210.568 165.771C210.436 165.704 210.384 165.544 210.451 165.413C210.517 165.282 210.677 165.23 210.808 165.296C212.559 166.183 214.375 167.176 216.388 168.266C216.518 168.336 216.566 168.497 216.497 168.627C216.427 168.756 216.266 168.804 216.134 168.734ZM186.376 163.547C186.303 163.419 186.348 163.256 186.476 163.185C188.25 162.182 190.335 161.463 192.504 161.104C192.652 161.078 192.787 161.178 192.811 161.322C192.836 161.467 192.737 161.605 192.593 161.629C190.483 161.978 188.459 162.675 186.738 163.648C186.609 163.72 186.447 163.674 186.376 163.547ZM204.834 163.209C202.708 162.418 200.733 161.891 198.796 161.597C198.651 161.576 198.551 161.44 198.573 161.295C198.595 161.149 198.73 161.048 198.877 161.071C200.851 161.37 202.86 161.907 205.019 162.71C205.157 162.761 205.228 162.914 205.175 163.052C205.125 163.189 204.973 163.26 204.834 163.209Z" fill="black"/>
<path d="M150.264 234.039C149.534 233.394 148.793 232.539 148.172 231.532C148.095 231.407 148.134 231.242 148.26 231.165C148.385 231.087 148.549 231.128 148.627 231.252C149.215 232.206 149.918 233.023 150.617 233.64C150.728 233.737 150.738 233.906 150.641 234.016C150.544 234.126 150.375 234.136 150.264 234.039Z" fill="black"/>
<path d="M164.19 202.554C163.686 194.162 156.781 187.425 148.378 187.092C138.963 186.727 131.211 194.242 131.211 203.565C131.211 208.943 133.787 213.715 137.777 216.725C142.265 220.11 145.58 224.807 147.542 230.069C147.568 230.142 147.636 230.189 147.711 230.189C147.788 230.189 147.856 230.142 147.882 230.069C149.873 224.693 153.409 220.072 157.921 216.521C162.002 213.31 164.529 208.219 164.19 202.554ZM147.715 210.04C143.707 210.04 140.46 206.795 140.46 202.793C140.46 198.793 143.707 195.549 147.715 195.549C151.723 195.549 154.97 198.793 154.97 202.793C154.97 206.795 151.723 210.04 147.715 210.04Z" fill="#28A745"/>
<path d="M147.715 210.306C143.567 210.306 140.193 206.936 140.193 202.793C140.193 198.651 143.567 195.282 147.715 195.282C151.862 195.282 155.236 198.651 155.236 202.793C155.236 206.936 151.862 210.306 147.715 210.306ZM147.715 195.815C143.862 195.815 140.726 198.945 140.726 202.793C140.726 206.642 143.862 209.773 147.715 209.773C151.569 209.773 154.703 206.642 154.703 202.793C154.703 198.945 151.569 195.815 147.715 195.815ZM131.516 200.383C131.371 200.353 131.28 200.211 131.311 200.068C131.447 199.422 131.625 198.78 131.838 198.155C131.886 198.016 132.038 197.941 132.177 197.988C132.316 198.036 132.391 198.188 132.344 198.327C132.136 198.932 131.964 199.554 131.832 200.178C131.802 200.321 131.661 200.414 131.516 200.383ZM133.432 195.298C133.306 195.223 133.265 195.059 133.34 194.934C136.019 190.493 140.497 187.581 145.626 186.943C145.775 186.921 145.906 187.028 145.925 187.174C145.942 187.321 145.839 187.452 145.693 187.471C140.728 188.089 136.392 190.909 133.797 195.209C133.721 195.334 133.558 195.375 133.432 195.298Z" fill="#0A0A19"/>
<path d="M81.4683 46.5321C81.4683 46.5321 68.3812 54.2262 77.8854 67.2585L94.8974 56.896L81.4683 46.5321Z" fill="#2F2F3F"/>
<path d="M150.471 88.3871C150.471 88.3871 142.818 108.245 135.134 104.685C128.879 101.787 140.732 82.8347 150.471 88.3871Z" fill="#2F2F3F"/>
<path d="M58.1178 99.8957C58.1178 99.8957 58.3192 114.034 86.3117 112.04C114.304 110.044 114.013 102.039 114.013 102.039C114.013 102.039 74.1388 88.0717 58.1178 99.8957Z" fill="#F72C16"/>
<path d="M97.4488 205.531L92.5981 220.236L83.6633 215.397L88.8689 203.021L97.4488 205.531Z" fill="#FFC8BB"/>
<path d="M93.4327 215C94.4613 215.376 95.009 216.449 94.8047 217.524C94.6294 218.451 94.8424 219.137 95.5335 219.692C97.6893 221.419 104.925 223.236 102.295 230.575C102.062 231.225 101.327 231.546 100.696 231.267L80.6773 222.425C80.0847 222.165 79.8124 221.476 80.0659 220.881L82.626 214.884C83.0476 213.819 83.7242 212.885 84.5804 212.132C84.7615 211.971 85.0223 211.931 85.2498 212.015L93.4327 215Z" fill="#FA5743"/>
<path d="M190.383 102.267C190.383 102.267 177.509 106.437 166.011 108.567C159.913 109.701 154.203 110.26 151.006 109.322C146.858 108.114 140.184 101.747 135.274 96.5704V85.2832H147.498C151.074 89.1295 155.151 93.5141 157.066 95.5748L189.659 93.3651L190.383 102.267Z" fill="#FFC8BB"/>
<path d="M166.011 108.567C159.913 109.701 154.203 110.26 151.006 109.322C146.858 108.114 140.184 101.747 135.274 96.5704V85.2832H147.498L151.517 89.6056C150.493 91.0208 149.89 91.7545 147.647 93.1943C142.6 96.4416 141.503 99.8755 146.352 103.492C151.891 107.61 159.178 108.94 166.011 108.567Z" fill="#FCA495"/>
<path d="M86.0988 51.6649V68.5059L76.7916 67.1153C23.1463 81.1215 37.3954 77.401 34.9251 78.0464L30.8091 68.7027C30.8091 68.7027 35.8625 66.1472 42.8733 62.9839C53.88 58.0059 69.7025 51.5042 78.349 50.9833C80.1123 50.8762 83.0925 51.2119 86.0988 51.6649Z" fill="#FFC8BB"/>
<path d="M86.0988 51.6649V68.5059L76.7916 67.1153L75.4963 67.451C76.0831 65.4613 77.0726 63.9114 77.6391 62.0302C78.9923 57.4966 76.4496 53.8528 69.6547 55.8541C62.7641 57.8945 56.5994 61.6743 49.477 62.7654C47.4835 63.075 45.0683 63.2921 42.8733 62.9839C53.88 58.0059 69.7025 51.5042 78.349 50.9833C80.1123 50.8762 83.0925 51.2119 86.0988 51.6649Z" fill="#FCA495"/>
<path d="M103.185 208.575C101.51 211.254 98.1833 212.388 95.2205 211.291L86.9999 208.245C86.2538 207.969 85.8597 207.148 86.1104 206.393L103.483 153.637C103.483 153.637 97.4691 147.845 90.8697 139.81C85.9292 133.793 80.657 126.51 77.3465 119.47L96.5679 103.535C96.5679 103.535 98.8338 106.079 102.134 109.978C110.381 119.726 125.11 137.952 127.171 146.13C131.128 161.822 110.94 196.175 103.185 208.575Z" fill="#2F2F3F"/>
<path d="M102.134 109.978C102.091 110.051 102.049 110.121 102.001 110.196C95.9304 119.889 91.7955 128.512 90.8697 139.81C85.9292 133.793 80.657 126.51 77.3465 119.47L96.5679 103.535C96.5679 103.535 98.8338 106.079 102.134 109.978Z" fill="#0A0A19"/>
<path d="M23.4186 201.233L11.7484 211.423L6.52401 202.713L17.3133 194.709L23.4186 201.233Z" fill="#FFC8BB"/>
<mask id="mask4_9_681" style="mask-type:luminance" maskUnits="userSpaceOnUse" x="0" y="200" width="18" height="26">
<path d="M0.00289536 200.043H17.803V225.604H0.00289536V200.043Z" fill="white"/>
</mask>
<g mask="url(#mask4_9_681)">
<path d="M15.1358 207.342C15.8298 208.187 15.753 209.39 15.03 210.21C14.4056 210.919 14.239 211.618 14.5519 212.447C15.527 215.032 20.8282 220.273 14.8228 225.253C14.2926 225.694 13.4972 225.596 13.0958 225.036L0.370894 207.245C-0.0043496 206.719 0.111556 205.989 0.633129 205.606L5.89233 201.746C6.79929 201.043 7.85837 200.583 8.97831 200.37C9.21591 200.325 9.46076 200.422 9.61434 200.61L15.1358 207.342Z" fill="#FA5743"/>
</g>
<path d="M89.7758 102.8C89.7758 102.8 85.4091 152.682 79.4139 162.859C71.5816 176.154 36.0219 199.048 24.8689 206.018C22.9608 207.211 20.4631 206.788 19.0534 205.034L13.5319 198.168C13.1147 197.65 13.1509 196.902 13.6145 196.426L57.1891 151.753C57.1891 151.753 54.5088 117.589 63.3031 97.7874L89.7758 102.8Z" fill="#2F2F3F"/>
<path d="M150.473 88.3872C140.131 87.1775 139.027 95.6009 135.135 104.684C132.033 103.471 128.963 99.4457 125.892 95.543C105.74 119.204 108.345 116.145 107.972 116.585C82.9432 115.275 75.3312 97.2896 58.1192 99.8929C64.8881 88.5464 77.2987 78.5848 92.0273 70.7952L77.884 67.26C81.9363 60.8436 83.2895 53.9643 81.4669 46.5321L108.541 51.84C112.94 52.7024 117.092 54.4389 120.759 56.9134C121.206 57.2129 121.638 57.5212 122.07 57.841C123.83 59.1448 125.46 60.6309 126.942 62.2762L132.94 68.9313L134.011 70.1179L147.349 84.9157L150.473 88.3872Z" fill="#FA5743"/>
<path d="M134.011 70.1179L133.979 70.1454C132.284 71.5939 130.12 72.3927 127.887 72.3927C122.71 72.3927 118.499 68.186 118.499 63.0113C118.499 60.7698 119.298 58.6122 120.759 56.9133C121.206 57.2129 121.638 57.5211 122.07 57.8409C123.83 59.1447 125.46 60.6309 126.942 62.2762L132.94 68.9313L134.011 70.1179Z" fill="#2F2F3F"/>
<path d="M150.473 88.3872C140.131 87.1774 139.027 95.6008 135.135 104.684C132.033 103.471 128.963 99.4457 125.892 95.5429L125.738 95.7238C126.409 94.6762 127.151 94.4215 127.493 93.4577C128.404 94.326 127.929 94.7543 128.478 95.8946C129.618 98.2736 131.224 100.935 133.905 100.218C135.467 99.7916 136.303 98.1419 136.912 96.6456C138.514 92.7269 139.947 88.6737 143.515 86.3483C144.528 85.6869 145.973 85.0372 147.349 84.9156L150.473 88.3872Z" fill="#F72C16"/>
<path d="M135.037 104.933C131.728 103.639 128.249 98.9696 125.886 95.9626L123.793 98.4212C123.697 98.5326 123.529 98.5456 123.417 98.4501C123.306 98.3546 123.291 98.1867 123.387 98.0753L125.692 95.3693C125.798 95.2463 125.998 95.2434 126.105 95.378C128.329 98.2099 131.849 102.955 134.992 104.338C138.863 95.2 140.035 86.901 150.502 88.1223C150.648 88.1397 150.754 88.2714 150.736 88.4176C150.719 88.5637 150.588 88.6693 150.441 88.652C140.332 87.4697 139.241 95.7745 135.379 104.79C135.324 104.92 135.173 104.985 135.037 104.933Z" fill="#0A0A19"/>
<path d="M77.884 67.26C81.9363 60.8436 83.2895 53.9643 81.4669 46.5321L94.1542 49.0182C88.9993 54.3637 85.3468 61.1678 83.8705 68.7562L77.884 67.26Z" fill="#F72C16"/>
<path d="M110.385 113.747L107.972 116.585C82.9432 115.275 75.3312 97.2896 58.1192 99.8929C63.4755 90.9109 72.3727 82.7957 83.1519 75.9438C83.1461 76.0654 83.1461 76.1826 83.1461 76.3056C83.1461 93.8022 94.5801 108.63 110.385 113.747Z" fill="#F72C16"/>
<path d="M34.9237 78.045C34.9237 78.045 33.8805 82.3543 31.8783 82.5974C29.876 82.8406 31.4465 77.8091 31.4465 77.8091C31.4465 77.8091 26.2656 82.9636 23.2289 79.3878C20.1907 75.8121 18.313 68.3568 30.8076 68.7041L34.9237 78.045Z" fill="#FFC8BB"/>
<path d="M194.506 94.6198C194.506 94.6198 200.557 92.0454 199.903 97.0451C199.363 101.189 195.844 103.11 189.228 102.608L189.659 93.368" fill="#FFC8BB"/>
<path d="M204.845 90.0527L189.84 103.982C189.141 104.632 188.048 104.589 187.399 103.891C186.748 103.198 186.784 102.11 187.488 101.459L202.318 87.694C203.007 88.5998 203.848 89.3928 204.845 90.0527Z" fill="#2F2F3F"/>
<path d="M189.659 93.368C189.659 93.368 196.099 89.7315 197.797 91.4376C199.219 92.8673 194.447 94.7963 194.447 94.7963" fill="#FFC8BB"/>
<path d="M273.031 118.997C272.192 105.028 260.698 93.8122 246.709 93.2594C231.038 92.6516 218.132 105.162 218.132 120.681C218.132 129.632 222.421 137.577 229.064 142.586C236.534 148.221 242.052 156.039 245.316 164.798C245.413 165.065 245.789 165.066 245.886 164.798C249.199 155.848 255.086 148.157 262.595 142.247C269.388 136.902 273.594 128.426 273.031 118.997ZM245.606 131.456C238.934 131.456 233.529 126.057 233.529 119.394C233.529 112.736 238.934 107.335 245.606 107.335C252.276 107.335 257.683 112.736 257.683 119.394C257.683 126.057 252.276 131.456 245.606 131.456Z" fill="#FF7043"/>
<path d="M270.776 131.702C270.642 131.645 270.578 131.487 270.636 131.352C271.24 129.943 271.725 128.471 272.08 126.978C272.115 126.834 272.259 126.746 272.402 126.781C272.545 126.814 272.634 126.957 272.599 127.101C272.237 128.623 271.743 130.124 271.127 131.562C271.069 131.697 270.913 131.759 270.776 131.702ZM273.051 119.663C272.91 119.663 272.792 119.551 272.786 119.41C272.147 105.347 260.494 94.0713 246.699 93.5257C242.181 93.3535 237.665 94.2985 233.645 96.2679C233.513 96.3331 233.353 96.2781 233.288 96.1464C233.225 96.0133 233.278 95.8541 233.41 95.7904C237.509 93.7819 242.11 92.8152 246.719 92.9932C260.781 93.5489 272.456 104.965 273.297 118.981C273.305 119.116 273.312 119.25 273.318 119.385C273.325 119.533 273.21 119.657 273.064 119.663C273.06 119.663 273.055 119.663 273.051 119.663Z" fill="#0A0A19"/>
<path d="M145.221 46.8316C145.221 46.8316 148.111 48.8271 145.612 54.9424C145.612 54.9424 147.282 58.0753 146.646 58.9088C146.249 59.4283 145.119 58.8437 145.119 58.8437C145.119 58.8437 144.687 63.1488 141.784 63.6205C138.881 64.0923 134.876 62.3601 133.526 57.4039C132.175 52.4477 130.285 47.1543 134.607 45.5683C138.927 43.9837 145.221 46.8316 145.221 46.8316Z" fill="#FFC8BB"/>
<path d="M85.1744 74.6819C85.0976 74.556 85.1382 74.3925 85.2642 74.3158C87.1969 73.1452 89.2209 71.9918 91.2884 70.8863L77.8217 67.516C77.6464 67.4726 77.5638 67.27 77.6608 67.1152C81.761 60.628 82.9548 53.724 81.209 46.5957C81.1742 46.4539 81.2612 46.3092 81.4046 46.2745C81.5466 46.2383 81.6914 46.3266 81.7277 46.4698C83.4807 53.6285 82.3289 60.5643 78.3056 67.0892L92.0896 70.5375C92.3258 70.5969 92.3663 70.9167 92.149 71.031C89.8787 72.2321 87.6548 73.4896 85.5395 74.7717C85.4135 74.8469 85.2497 74.8064 85.1744 74.6819Z" fill="#0A0A19"/>
<path d="M125.725 95.7469C125.611 95.6543 125.596 95.4865 125.689 95.3721C125.735 95.3171 130.35 89.7199 132.259 84.5191C132.31 84.3816 132.464 84.3122 132.601 84.3614C132.739 84.412 132.81 84.5654 132.759 84.7029C130.818 89.9905 126.147 95.6558 126.101 95.7122C126.006 95.8251 125.838 95.841 125.725 95.7469Z" fill="#0A0A19"/>
<path d="M91.8201 70.9644C91.726 70.8515 91.7419 70.6836 91.8549 70.5896C91.9056 70.549 96.9533 66.4046 101.665 65.0125C101.805 64.9706 101.955 65.0516 101.997 65.192C102.039 65.3338 101.957 65.4814 101.817 65.5234C97.2068 66.8851 92.2446 70.96 92.1954 71.0005C92.0824 71.0946 91.9143 71.0787 91.8201 70.9644Z" fill="#0A0A19"/>
<path d="M69.3447 121.547C68.1479 121.547 66.8585 121.309 65.4792 120.758C65.3416 120.703 65.2749 120.548 65.33 120.412C65.3851 120.275 65.5401 120.21 65.6763 120.263C75.111 124.033 79.992 112.617 80.1948 112.129C80.2513 111.993 80.4064 111.93 80.5426 111.986C80.6787 112.042 80.7439 112.199 80.6874 112.333C80.6425 112.44 76.7568 121.547 69.3447 121.547Z" fill="#0A0A19"/>
<path d="M131.128 66.9242L132.94 68.9313C131.58 70.0919 129.811 70.7952 127.887 70.7952C123.584 70.7952 120.098 67.3077 120.098 63.0114C120.098 61.0303 120.844 59.2142 122.07 57.841C122.587 58.2244 123.094 58.6238 123.59 59.0391L132.839 51.9094L137.598 55.9554L139.64 57.6919L131.928 66.056L131.128 66.9242Z" fill="#FFC8BB"/>
<path d="M131.928 66.0559C134.906 60.5035 134.011 56.4719 134.011 56.4719L137.598 55.9553L139.64 57.6918L131.928 66.0559Z" fill="#FCA495"/>
<path d="M146.645 58.9103C146.251 59.4269 145.121 58.8408 145.121 58.8408C145.09 58.9537 145.048 59.9088 144.438 61.2907C143.953 62.35 143.131 63.4049 141.784 63.6234C138.883 64.0908 134.875 62.3616 133.526 57.4039C132.177 52.4462 130.285 47.1543 134.608 45.5683C138.925 43.9866 145.222 46.8301 145.222 46.8301C145.222 46.8301 148.111 48.8256 145.61 54.9439C145.61 54.9439 147.285 58.0753 146.645 58.9103Z" fill="#FFC8BB"/>
<path d="M151.298 43.4035C151.239 41.9752 151.178 39.2243 148.221 38.5804C146.075 38.1144 144.987 41.0129 144.987 41.0129C144.987 41.0129 142.04 36.773 132.977 39.3748C127.144 41.0491 125.785 44.8679 126.098 48.8343C126.286 51.2075 127.619 53.2826 129.502 54.4808C130.606 53.7819 131.603 53.4447 133.171 54.3057C132.643 52.5649 131.918 49.8039 133.795 49.3784C135.908 48.8994 137.488 52.7067 137.488 52.7067C140.66 52.2653 138.773 47.8952 138.773 47.8952C151.942 55.2333 151.436 46.7245 151.298 43.4035Z" fill="#2F2F3F"/>
<path d="M144.322 52.7125C144.206 53.2132 143.867 53.5662 143.566 53.4953C143.265 53.4259 143.12 52.9585 143.237 52.4578C143.355 51.9528 143.692 51.604 143.993 51.6749C144.295 51.7458 144.441 52.2074 144.322 52.7125Z" fill="black"/>
<path d="M144.657 60.764C144.593 60.9333 144.518 61.1098 144.438 61.2907C144.416 61.2965 144.395 61.2965 144.374 61.2965C143.213 61.2965 142.524 60.45 142.311 59.9753C142.252 59.8379 142.317 59.683 142.45 59.6237C142.582 59.5658 142.737 59.6237 142.801 59.7568C142.823 59.8046 143.318 60.8812 144.577 60.7524C144.603 60.7481 144.635 60.7524 144.657 60.764Z" fill="#FCA495"/>
<path d="M134.153 54.614C132.914 54.4418 132.091 52.9846 132.319 51.3552C132.546 49.7258 133.734 48.5464 134.973 48.7186C136.212 48.8908 137.03 50.348 136.803 51.9774" fill="#FFC8BB"/>
<path d="M134.115 54.8773C133.433 54.7832 132.842 54.3506 132.454 53.6618C131.202 51.4347 132.784 48.1455 135.009 48.4552C136.39 48.6462 137.313 50.2438 137.067 52.0135C137.046 52.1597 136.913 52.2639 136.767 52.2407C136.62 52.2205 136.519 52.0859 136.539 51.9412C136.745 50.4608 136.026 49.1339 134.937 48.9819C133.155 48.7345 131.88 51.5563 132.919 53.4013C133.223 53.941 133.675 54.2797 134.189 54.3506C134.336 54.3708 134.437 54.5054 134.417 54.6516C134.396 54.7977 134.259 54.899 134.115 54.8773Z" fill="#FCA495"/>
<path d="M232.591 53.8557C221.418 53.4462 207.924 61.735 202.45 72.371C196.978 83.0027 201.597 91.9557 212.776 92.3667C223.949 92.7776 237.448 84.4888 242.921 73.8572C248.394 63.2212 243.769 54.2667 232.591 53.8557ZM238.377 73.2349C234.137 81.4688 223.681 87.8865 215.025 87.5696C206.369 87.2513 202.789 80.3169 207.028 72.083C211.268 63.8405 221.719 57.4213 230.376 57.7397C239.031 58.0566 242.616 64.9909 238.377 73.2349Z" fill="white"/>
<path d="M245.171 64.1761C243.954 76.8916 227.145 90.3508 212.793 89.8241C205.303 89.5477 200.757 85.4423 200.218 79.5643C199.541 86.7736 204.254 92.0497 212.777 92.3637C223.951 92.779 237.448 84.4887 242.921 73.8556C244.718 70.3682 245.422 67.0573 245.171 64.1761Z" fill="#B6BFFF"/>
<path d="M213.581 92.6459C204.247 92.6459 199.253 86.9965 199.952 79.5398H200.484C201.026 85.4583 205.746 89.2974 212.803 89.5579C227.077 90.0889 243.708 76.6514 244.906 64.1516L245.437 64.1531C245.7 67.1774 244.912 70.5752 243.159 73.9787C237.781 84.4236 224.665 92.6459 213.581 92.6459ZM200.483 82.1894C200.709 84.4526 201.546 86.451 202.959 88.0601C205.142 90.5448 208.541 91.9412 212.788 92.0989C226.569 92.6213 242.924 79.9638 244.789 67.4784C241.176 79.6729 225.64 90.5621 212.783 90.0904C206.521 89.8588 202.026 86.901 200.483 82.1894Z" fill="#E6EBFD"/>
<path d="M213.57 92.6474C201.588 92.6474 196.541 83.2689 202.214 72.2494C207.721 61.5483 221.344 53.177 232.602 53.5909C244.041 54.0105 248.683 63.2385 243.158 73.9787C237.781 84.4236 224.659 92.6474 213.57 92.6474ZM202.688 72.4925C197.413 82.7378 201.597 91.6894 212.786 92.1004C223.838 92.507 237.262 84.2674 242.684 73.7356C247.959 63.4831 243.768 54.5329 232.581 54.122C221.57 53.7182 208.134 61.9087 202.688 72.4925ZM215.014 87.8358C206.084 87.5074 202.505 80.2865 206.791 71.9615C211.065 63.6524 221.657 57.1434 230.386 57.4734C239.286 57.8004 242.917 64.9895 238.614 73.3564C234.307 81.722 223.674 88.1614 215.014 87.8358ZM229.756 57.9943C221.33 57.9943 211.355 64.2544 207.266 72.2046C203.201 80.0983 206.413 86.9864 215.035 87.3033C223.59 87.613 233.949 81.2517 238.139 73.1119C242.32 64.9837 238.788 57.9943 229.756 57.9943Z" fill="#0A0A19"/>
<path d="M253.465 199.832C253.431 199.832 253.398 199.826 253.366 199.813L223.061 187.766C222.923 187.711 222.857 187.558 222.912 187.42C222.965 187.284 223.121 187.216 223.258 187.271L253.563 199.318C253.699 199.373 253.766 199.528 253.712 199.664C253.67 199.768 253.57 199.832 253.465 199.832Z" fill="#0A0A19"/>
<path d="M214.457 184.325C214.423 184.325 214.39 184.319 214.358 184.306L211.84 183.306C211.702 183.251 211.636 183.097 211.691 182.961C211.744 182.823 211.899 182.757 212.037 182.812L214.555 183.813C214.691 183.866 214.758 184.021 214.704 184.157C214.662 184.263 214.562 184.325 214.457 184.325Z" fill="#0A0A19"/>
<path d="M164.745 180.476L138.979 170.255C138.841 170.2 138.775 170.045 138.828 169.909C138.883 169.772 139.038 169.705 139.175 169.76L164.942 179.981C165.08 180.036 165.146 180.189 165.091 180.327C165.036 180.464 164.881 180.529 164.745 180.476Z" fill="#0A0A19"/>
<path d="M57.0225 151.961C56.908 151.869 56.8892 151.701 56.9805 151.587C57.0732 151.472 57.2398 151.453 57.3557 151.545C57.3992 151.579 61.8992 155.084 68.9911 155.009C69.136 154.987 69.2592 155.125 69.2606 155.272C69.2621 155.42 69.1447 155.54 68.9969 155.541C63.9507 155.605 59.2102 153.706 57.0225 151.961Z" fill="#0A0A19"/>
<path d="M103.438 153.9C103.293 153.876 103.195 153.738 103.219 153.594C103.244 153.449 103.383 153.352 103.527 153.375C103.603 153.39 111.294 154.63 117.38 151.122C117.506 151.048 117.67 151.092 117.744 151.219C117.818 151.346 117.774 151.51 117.647 151.584C113.567 153.934 107.524 154.581 103.438 153.9Z" fill="#0A0A19"/>
<path d="M205.785 48.5956L187.669 28.0283C187.378 27.697 187.41 27.1934 187.742 26.9011C188.074 26.6102 188.579 26.642 188.87 26.9734L206.986 47.5407C207.278 47.872 207.246 48.3771 206.914 48.6679C206.585 48.9588 206.08 48.9284 205.785 48.5956Z" fill="#3365FF"/>
<path d="M199.928 56.7252C192.584 54.8339 185.028 53.7891 177.473 53.6198C177.031 53.6111 176.68 53.245 176.69 52.8036C176.7 52.3637 177.068 51.9962 177.507 52.0237C185.186 52.1944 192.863 53.2566 200.328 55.1783C200.755 55.2883 201.012 55.7238 200.901 56.1507C200.793 56.5747 200.36 56.8366 199.928 56.7252Z" fill="#3365FF"/>
<path d="M214.413 43.2342C213.973 43.2125 213.634 42.8362 213.655 42.3963L214.741 21.0665C214.762 20.6266 215.14 20.2807 215.579 20.3097C216.02 20.3328 216.36 20.7076 216.337 21.1475L215.253 42.4774C215.23 42.926 214.843 43.2588 214.413 43.2342Z" fill="#3365FF"/>
<path d="M123.556 18.9074L117.06 1.98823C116.537 0.623643 114.887 0.0896734 113.661 0.885563L105.833 5.97202C104.606 6.76791 104.428 8.49137 105.464 9.52314L118.315 22.3138C119.082 23.0793 120.282 23.2023 121.191 22.6119L122.664 21.6554C123.572 21.065 123.945 19.9189 123.556 18.9074Z" fill="#FFBB32"/>
<path d="M128.571 26.5364C129.524 27.9994 129.113 29.9616 127.648 30.9123C126.183 31.8645 124.216 31.4477 123.264 29.9847C122.31 28.5217 122.731 26.5624 124.195 25.6117C125.66 24.6595 127.619 25.0734 128.571 26.5364Z" fill="#FFBB32"/>
<path d="M139.179 17.7281L139.892 5.45841C139.948 4.46861 139.079 3.67851 138.098 3.829L131.838 4.78986C130.857 4.94036 130.264 5.9562 130.617 6.88233L134.988 18.3721C135.248 19.0594 135.955 19.4704 136.683 19.359L137.861 19.1781C138.586 19.0652 139.137 18.4618 139.179 17.7281Z" fill="#FFBB32"/>
<path d="M140.148 23.8419C140.328 25.0112 139.525 26.1095 138.355 26.2889C137.184 26.4698 136.083 25.6638 135.903 24.4931C135.724 23.3239 136.531 22.2299 137.701 22.0505C138.873 21.8696 139.967 22.6727 140.148 23.8419Z" fill="#FFBB32"/>
<path d="M112.731 32.4028L104.041 26.6449C103.341 26.1804 102.389 26.48 102.081 27.2614L100.115 32.2494C99.806 33.0308 100.297 33.8976 101.127 34.0351L111.414 35.7441C112.028 35.8454 112.631 35.5053 112.86 34.9251L113.229 33.9874C113.458 33.4071 113.251 32.7472 112.731 32.4028Z" fill="#FFBB32"/>
<path d="M117.625 34.3043C118.559 34.6718 119.022 35.7282 118.654 36.6616C118.286 37.5949 117.225 38.0551 116.291 37.6875C115.358 37.32 114.9 36.2622 115.268 35.3288C115.636 34.3955 116.691 33.9367 117.625 34.3043Z" fill="#FFBB32"/>
<path d="M117.057 1.98973L123.561 18.9074C123.942 19.9204 123.575 21.0621 122.661 21.6554L121.191 22.6163C120.482 23.0707 119.6 23.1011 118.878 22.7306C119.201 22.6901 119.521 22.57 119.81 22.3833L121.28 21.4239C122.19 20.8364 122.563 19.6874 122.176 18.6803L115.676 1.75675C115.46 1.19673 115.058 0.781421 114.569 0.536866C115.6 0.383476 116.656 0.943493 117.057 1.98973Z" fill="#FFBB17"/>
<path d="M128.571 26.5393C129.524 28.0009 129.113 29.9587 127.646 30.9138C126.741 31.4984 125.653 31.5664 124.726 31.1873C127.147 31.0441 128.513 28.3366 127.192 26.3092C126.822 25.7434 126.308 25.3354 125.724 25.1038C126.825 25.0387 127.925 25.5481 128.571 26.5393Z" fill="#FFBB17"/>
<path d="M139.889 5.45982L139.182 17.7266C139.137 18.4589 138.591 19.0652 137.858 19.1781L136.684 19.3604C136.27 19.4197 135.864 19.3213 135.541 19.0927L136.477 18.9465C137.206 18.838 137.753 18.2331 137.797 17.4995L138.508 5.22828C138.54 4.66537 138.276 4.16758 137.866 3.87093L138.1 3.83041C139.079 3.68136 139.947 4.47002 139.889 5.45982Z" fill="#FFBB17"/>
<path d="M140.151 23.8405C140.412 25.6001 138.563 26.8938 137.001 26.0516C138.156 25.862 138.944 24.7724 138.768 23.6147C138.662 22.9288 138.242 22.3673 137.671 22.0577C137.68 22.0577 137.693 22.0519 137.701 22.0519C138.873 21.8696 139.969 22.6698 140.151 23.8405Z" fill="#FFBB17"/>
<path d="M113.229 33.9845L112.858 34.928C112.631 35.5068 112.025 35.8469 111.41 35.7441L110.03 35.5126C110.645 35.6153 111.252 35.2753 111.479 34.6964L111.846 33.7573C112.076 33.1741 111.867 32.5215 111.347 32.1742L102.82 26.5277C103.198 26.3613 103.66 26.3859 104.041 26.642L112.731 32.4014C113.252 32.7487 113.455 33.4071 113.229 33.9845Z" fill="#FFBB17"/>
<path d="M118.657 36.6601C118.244 37.7005 116.977 38.1535 115.983 37.5298C117.571 37.1825 117.909 35.0755 116.541 34.2333C117.926 33.8918 119.204 35.2738 118.657 36.6601Z" fill="#FFBB17"/>
<path d="M114.209 18.6035L105.275 9.71129C104.118 8.56087 104.321 6.63626 105.688 5.74921L108.651 3.82315C108.774 3.74212 108.939 3.77829 109.02 3.90129C109.1 4.0243 109.065 4.18926 108.942 4.26885L105.978 6.1949C104.893 6.89963 104.736 8.42339 105.652 9.33505L114.585 18.2259C114.69 18.3301 114.69 18.4979 114.585 18.6021C114.483 18.7063 114.313 18.7077 114.209 18.6035Z" fill="black"/>
<path d="M132.044 11.3813L130.367 6.97781C129.954 5.89106 130.65 4.70302 131.797 4.52647L134.333 4.13721C134.479 4.11406 134.614 4.21535 134.637 4.36006C134.659 4.50477 134.559 4.64079 134.414 4.66394L131.878 5.05321C131.066 5.17765 130.575 6.01985 130.866 6.78825L132.542 11.1917C132.594 11.3306 132.525 11.484 132.387 11.5361C132.252 11.5882 132.096 11.5202 132.044 11.3813Z" fill="black"/>
<path d="M105.119 34.9641C105.104 34.9641 105.09 34.9627 105.075 34.9612L101.082 34.297C100.087 34.132 99.4945 33.0916 99.8654 32.151L100.249 31.18C100.303 31.044 100.458 30.9774 100.594 31.031C100.732 31.0845 100.798 31.2393 100.745 31.3754L100.362 32.3463C100.116 32.9715 100.509 33.6617 101.171 33.7717L105.162 34.4359C105.307 34.4591 105.406 34.5965 105.381 34.7412C105.361 34.8715 105.248 34.9641 105.119 34.9641Z" fill="black"/>
<path d="M48.8671 145.515C46.7257 132.582 47.8471 119.195 52.1095 106.798C52.253 106.381 52.7079 106.159 53.1266 106.303C53.5439 106.447 53.7655 106.901 53.6221 107.318C49.4452 119.464 48.347 132.582 50.4449 145.254C50.5158 145.69 50.2217 146.101 49.7856 146.172C49.3539 146.244 48.9395 145.953 48.8671 145.515Z" fill="#FCA495"/>
<path d="M42.7661 138.877C41.3593 130.38 42.0968 121.583 44.8973 113.436C45.0408 113.019 45.4942 112.798 45.913 112.941C46.3317 113.084 46.5533 113.539 46.4099 113.955C43.6948 121.852 42.9806 130.38 44.3439 138.616C44.4163 139.051 44.1208 139.463 43.6861 139.534C43.2529 139.606 42.8386 139.314 42.7661 138.877Z" fill="#FCA495"/>
</g>
<defs>
<clipPath id="clip0_9_681">
<rect width="274" height="257" fill="white"/>
</clipPath>
</defs>
</svg>
